<?xml version="1.0" encoding="UTF-8" standalone="no"?>
<!DOCTYPE svg PUBLIC "-//W3C//DTD SVG 1.1//EN"
 "http://www.w3.org/Graphics/SVG/1.1/DTD/svg11.dtd">
<!-- Generated by graphviz version 14.0.0 (20250921.2048)
 -->
<!-- Title: G Pages: 1 -->
<svg width="896pt" height="44pt"
 viewBox="0.00 0.00 896.00 44.00" xmlns="http://www.w3.org/2000/svg" xmlns:xlink="http://www.w3.org/1999/xlink">
<g id="graph0" class="graph" transform="scale(1 1) rotate(0) translate(4 40)">
<title>G</title>
<polygon fill="white" stroke="none" points="-4,4 -4,-40 892.25,-40 892.25,4 -4,4"/>
<!-- aws_default_vpc.default -->
<g id="node1" class="node">
<title>aws_default_vpc.default</title>
<polygon fill="none" stroke="black" points="160.75,-36 0,-36 0,0 160.75,0 160.75,-36"/>
<text xml:space="preserve" text-anchor="middle" x="80.38" y="-12.2" font-family="sans-serif" font-size="14.00">aws_default_vpc.default</text>
</g>
<!-- aws_instance.backend_servers -->
<g id="node2" class="node">
<title>aws_instance.backend_servers</title>
<polygon fill="none" stroke="black" points="701.25,-36 497,-36 497,0 701.25,0 701.25,-36"/>
<text xml:space="preserve" text-anchor="middle" x="599.12" y="-12.2" font-family="sans-serif" font-size="14.00">aws_instance.backend_servers</text>
</g>
<!-- aws_security_group.backend_servers_sg -->
<g id="node3" class="node">
<title>aws_security_group.backend_servers_sg</title>
<polygon fill="none" stroke="black" points="461,-36 196.75,-36 196.75,0 461,0 461,-36"/>
<text xml:space="preserve" text-anchor="middle" x="328.88" y="-12.2" font-family="sans-serif" font-size="14.00">aws_security_group.backend_servers_sg</text>
</g>
<!-- aws_instance.backend_servers&#45;&gt;aws_security_group.backend_servers_sg -->
<g id="edge1" class="edge">
<title>aws_instance.backend_servers&#45;&gt;aws_security_group.backend_servers_sg</title>
<path fill="none" stroke="black" d="M496.71,-18C488.85,-18 480.82,-18 472.75,-18"/>
<polygon fill="black" stroke="black" points="472.84,-14.5 462.84,-18 472.84,-21.5 472.84,-14.5"/>
</g>
<!-- aws_security_group.backend_servers_sg&#45;&gt;aws_default_vpc.default -->
<g id="edge2" class="edge">
<title>aws_security_group.backend_servers_sg&#45;&gt;aws_default_vpc.default</title>
<path fill="none" stroke="black" d="M196.33,-18C188.23,-18 180.19,-18 172.33,-18"/>
<polygon fill="black" stroke="black" points="172.48,-14.5 162.48,-18 172.48,-21.5 172.48,-14.5"/>
</g>
<!-- local_file.frontend_env -->
<g id="node4" class="node">
<title>local_file.frontend_env</title>
<polygon fill="none" stroke="black" points="888.25,-36 737.25,-36 737.25,0 888.25,0 888.25,-36"/>
<text xml:space="preserve" text-anchor="middle" x="812.75" y="-12.2" font-family="sans-serif" font-size="14.00">local_file.frontend_env</text>
</g>
<!-- local_file.frontend_env&#45;&gt;aws_instance.backend_servers -->
<g id="edge3" class="edge">
<title>local_file.frontend_env&#45;&gt;aws_instance.backend_servers</title>
<path fill="none" stroke="black" d="M736.84,-18C729.08,-18 721.08,-18 713.03,-18"/>
<polygon fill="black" stroke="black" points="713.13,-14.5 703.13,-18 713.13,-21.5 713.13,-14.5"/>
</g>
</g>
</svg>
